<svg version="1" xmlns="http://www.w3.org/2000/svg" width="682.667" height="682.667" viewBox="0 0 512.000000 512.000000"><path d="M248 30.2c-7 4.9-8.9 14.4-4.1 20.9l2.2 2.9-3.4 4.3c-10.9 13.4-23 33.9-29.8 50.3-2.3 5.5-4.4 10.2-4.8 10.6-.4.4-3.1-1.3-6.1-3.8-11.5-9.6-30.3-16.4-45.4-16.4-7.9 0-19.3 2.1-26.4 4.9-13.4 5.3-28.5 18.6-35.7 31.5l-3.7 6.6h-5.1c-6.7 0-11.2 2.7-13.7 8.3-2.4 5.3-2.4 7.1-.1 12.4 4.5 9.8 18.1 11 25.4 2.4 2.3-2.7 2.7-4.2 2.7-9.1v-5.8l4.9-2.1c16.2-6.9 32.8-6.5 48.6 1.3 18.6 9.2 28.5 24.9 30.5 48.4.5 5.9 1.7 13.1 2.5 16 1.3 4.4 1.4 5.9.3 9.4-2 6.9-1.7 34.5.6 44.8 2.2 10 6.7 23.3 10.6 31.1 2.3 4.4 2.7 6.4 2.3 9.8-.5 3.7-.7 4-2.2 2.7-2.1-1.8-14.5-8-19.1-9.5-1.9-.6-5.6-1.5-8.1-1.9l-4.7-.9 4.4 5.4c15 18.5 17.6 42.5 6.7 63.5-14.3 27.6-50.7 37.5-77.8 21.3-3.3-2-7.4-5-9-6.6-1.7-1.6-3.4-2.9-3.8-2.9-2.1 0 3.7 18.2 8.5 26.7 8.5 15.2 28.5 29.6 46.3 33.4 7.7 1.6 23.4 1.6 30.5 0 12.6-3 28.1-12 36.8-21.5l4.2-4.6 5 10.3c11.3 23.7 23.9 39.8 34.4 44.2 3.1 1.3 4.1 1.3 6.9.1 5.2-2.1 15.9-12.8 22-21.9 4.6-6.7 15.3-27 16.9-31.8.3-.8 2.2.7 4.9 3.6 8.8 9.6 24.2 18.6 36.9 21.6 7.1 1.6 22.8 1.6 30.5 0 17.8-3.8 37.8-18.2 46.3-33.4 4.8-8.5 10.6-26.7 8.5-26.7-.4 0-2.1 1.3-3.8 2.9-13.4 13-36.3 17.9-55 11.7-14.2-4.8-25.3-14-31.8-26.4-10.9-21-8.3-45 6.7-63.5l4.4-5.4-4.7.9c-2.5.4-6.2 1.3-8.1 1.9-4.6 1.5-17 7.7-19.1 9.5-1.5 1.3-1.7 1-2.2-2.7-.4-3.4 0-5.4 2.3-9.8 3.9-7.8 8.4-21.1 10.6-31.1 2.3-10.5 2.6-36.7.6-44.6-1.1-4.4-1.1-5.9.1-10.2.9-2.7 1.8-9.2 2.2-14.4 1.2-16.6 5.8-28 15.4-38.1 16.7-17.6 44.4-22.8 65.1-12.4 4.4 2.3 4.4 2.3 4.1 7.2-.7 14.5 16.7 20.9 26.2 9.6 3.7-4.4 4.3-9.3 1.7-14.6-2.9-6-7.5-8.7-14.1-8.4l-5 .3-3-5.4c-9.6-17.6-26.1-30.7-44.9-35.7-8.7-2.3-26.2-2.3-35 0-9.2 2.4-21.8 9-28.2 14.7l-5.5 4.9-3.8-9.2c-7-17.2-17.4-35.3-29.3-51l-5.2-6.8 2.1-2.8c7-9.4-.2-23.1-12.1-23.1-3.2 0-5.7.7-8 2.2z"/></svg>